# xmcd CD database file
#
# Track frame offsets:
#	150
#	23685
#	44060
#	65610
#	91167
#	114897
#	134192
#	155132
#	179540
#	203420
#
# Disc length: 3241 seconds
#
# Revision: 0
# Processed by: cddbd v1.5.1PL0 Copyright (c) Steve Scherf et al.
# Submitted via: CDex 1.50
#
DISCID=8b0ca70a
DTITLE=ジャー・パンシン - 光の海
DYEAR=2003
DGENRE=Acoustic
TTITLE0=涙そうそう
TTITLE1=くにぶん木の花
TTITLE2=花
TTITLE3=ワダツミの木
TTITLE4=光の海
TTITLE5=てぃんさぐぬ花
TTITLE6=海風
TTITLE7=黄金の花
TTITLE8=島唄
TTITLE9=おやすみ
EXTD=YEAR: 2003
EXTT0=
EXTT1=
EXTT2=
EXTT3=
EXTT4=
EXTT5=
EXTT6=
EXTT7=
EXTT8=
EXTT9=
PLAYORDER=
